<svg id="Capa_1" enable-background="new 0 0 512 512" height="512" viewBox="0 0 512 512" width="512" xmlns="http://www.w3.org/2000/svg"><g><g><path d="m453.31 167.302v292.823c0 24.508-19.907 44.375-44.464 44.375h-305.692c-24.557 0-44.464-19.867-44.464-44.375v-408.25c0-24.508 19.907-44.375 44.464-44.375h190.303c8.857 0 17.35 3.516 23.606 9.773l126.505 126.521c6.239 6.239 9.742 14.694 9.742 23.508z" fill="#f9f8f9"/><path d="m453.31 167.3v16.24h-115.96c-33.12 0-60.06-26.95-60.06-60.07v-115.97h16.17c8.85 0 17.35 3.52 23.6 9.77l126.51 126.52c6.24 6.24 9.74 14.7 9.74 23.51z" fill="#e3e0e4"/><path d="m133.15 504.5h-30c-24.55 0-44.46-19.87-44.46-44.38v-408.24c0-24.51 19.91-44.38 44.46-44.38h30c-24.55 0-44.46 19.87-44.46 44.38v408.24c0 24.51 19.91 44.38 44.46 44.38z" fill="#e3e0e4"/><path d="m450.32 153.54h-112.97c-16.6 0-30.06-13.46-30.06-30.07v-112.96c3.61 1.63 6.92 3.91 9.77 6.76l126.51 126.52c2.85 2.85 5.12 6.15 6.75 9.75z" fill="#a29aa5"/><g><path d="m223.594 454.726c-9.38-2.327-15.098-11.818-12.771-21.198l49.646-200.318c2.325-9.38 11.815-15.104 21.199-12.771 9.381 2.326 15.098 11.818 12.771 21.199l-49.646 200.318c-2.327 9.379-11.818 15.097-21.199 12.77z" fill="#9ec8fc"/></g><g><path d="m286.46 222.41c-3.85 2.31-6.82 6.1-7.99 10.8l-49.65 200.32c-1.89 7.65 1.56 15.37 7.98 19.23-3.83 2.29-8.54 3.13-13.21 1.97-9.38-2.33-15.09-11.82-12.77-21.2l49.65-200.32c2.33-9.38 11.81-15.1 21.2-12.77 1.73.43 3.34 1.1 4.79 1.97z" fill="#62a4fb"/></g><g><path d="m165 415.5c-4.479 0-8.957-1.709-12.374-5.126l-53.429-53.429c-10.723-10.722-10.723-28.169 0-38.891l53.604-53.604c6.936-6.936 18.503-7.151 25.308-.086 6.599 6.851 6.521 17.754-.235 24.509l-41.554 41.555c-3.905 3.905-3.905 10.237 0 14.142l41.054 41.055c6.835 6.834 6.835 17.914 0 24.748-3.417 3.418-7.895 5.127-12.374 5.127z" fill="#9ec8fc"/></g><path d="m172.63 410.37c.74.74 1.54 1.41 2.37 1.98-2.99 2.1-6.49 3.15-10 3.15-4.48 0-8.96-1.71-12.37-5.13l-53.43-53.42c-10.73-10.73-10.73-28.17 0-38.9l53.93-53.92c6.09-6.09 15.55-6.76 22.37-1.98-.83.57-1.63 1.23-2.37 1.98l-53.93 53.92c-10.73 10.73-10.73 28.17 0 38.9z" fill="#62a4fb"/><g><path d="m340 415.5c4.479 0 8.957-1.709 12.374-5.126l53.429-53.429c10.723-10.722 10.723-28.169 0-38.891l-53.929-53.929c-6.834-6.834-17.914-6.834-24.748 0-6.835 6.834-6.835 17.914 0 24.748l48.625 48.626-48.125 48.126c-6.835 6.834-6.835 17.914 0 24.748 3.417 3.418 7.895 5.127 12.374 5.127z" fill="#9ec8fc"/></g><path d="m390.755 342.496-65.265 65.284c-4.6-6.81-3.89-16.13 2.14-22.15l43.121-43.13c2.761-2.762 2.761-7.239 0-10l-43.621-43.63c-6.05-6.04-6.75-15.4-2.09-22.21l65.719 65.84c2.757 2.762 2.756 7.236-.004 9.996z" fill="#62a4fb"/></g><g><path d="m453.311 237.5c-4.143 0-7.5 3.357-7.5 7.5v215.125c0 20.333-16.582 36.875-36.965 36.875h-305.692c-20.383 0-36.965-16.542-36.965-36.875v-408.25c0-20.333 16.582-36.875 36.965-36.875h26.021c4.143 0 7.5-3.357 7.5-7.5s-3.357-7.5-7.5-7.5h-26.021c-28.653 0-51.965 23.271-51.965 51.875v408.25c0 28.604 23.312 51.875 51.965 51.875h305.691c28.653 0 51.965-23.271 51.965-51.875v-215.125c.001-4.143-3.357-7.5-7.499-7.5z"/><path d="m448.872 138.491-126.505-126.52c-7.718-7.72-17.985-11.971-28.91-11.971h-129.282c-4.143 0-7.5 3.357-7.5 7.5s3.357 7.5 7.5 7.5h129.282c2.165 0 4.288.264 6.334.775v107.696c0 20.714 16.85 37.566 37.561 37.566h107.694c.505 2.025.765 4.125.765 6.265v42.698c0 4.143 3.357 7.5 7.5 7.5s7.5-3.357 7.5-7.5v-42.698c0-10.879-4.241-21.112-11.939-28.811zm-134.081-15.02v-97.863l120.414 120.429h-97.854c-12.439 0-22.56-10.123-22.56-22.566z"/><path d="m241.473 341.038c.997-4.021-1.454-8.088-5.475-9.084-4.022-.998-8.088 1.454-9.084 5.475l-23.37 94.293c-3.319 13.379 4.865 26.964 18.245 30.283 12.924 3.513 27.339-5.138 30.283-18.245l49.646-200.317c3.506-12.973-5.136-27.318-18.241-30.282-12.978-3.514-27.323 5.132-30.287 18.245l-17.842 71.99c-.997 4.021 1.455 8.087 5.476 9.083 4.015.996 8.087-1.454 9.083-5.476l17.842-71.989c1.188-5.247 6.92-8.7 12.114-7.296 5.243 1.186 8.699 6.924 7.297 12.114l-49.646 200.317c-1.188 5.245-6.919 8.697-12.113 7.297-5.352-1.328-8.625-6.762-7.298-12.114z"/><path d="m190.5 276.5c0-6.678-2.601-12.956-7.322-17.678-9.307-9.698-26.049-9.698-35.355 0l-53.928 53.929c-13.562 13.007-13.561 36.49-.001 49.498l53.429 53.429c9.306 9.698 26.049 9.698 35.354 0 9.7-9.305 9.699-26.05.001-35.355l-42.823-42.823 43.321-43.322c4.723-4.722 7.324-11 7.324-17.678zm-17.93 7.07-48.625 48.626c-2.929 2.93-2.929 7.678 0 10.607l48.126 48.126c3.879 3.722 3.88 10.419-.001 14.141-3.722 3.881-10.419 3.88-14.141 0l-53.43-53.429c-7.741-7.423-7.741-20.861.001-28.283l53.929-53.929c3.899-3.901 10.242-3.899 14.142 0 3.879 3.723 3.88 10.42-.001 14.141z"/><path d="m383.325 368.815c-2.929 2.93-2.929 7.678 0 10.607 2.93 2.928 7.678 2.928 10.607 0l17.173-17.174c13.562-13.007 13.561-36.49.001-49.498l-53.929-53.929c-9.306-9.698-26.049-9.698-35.354 0-9.7 9.305-9.699 26.05-.001 35.355l43.322 43.322-42.821 42.822c-9.7 9.305-9.699 26.05-.001 35.355 9.307 9.698 26.049 9.698 35.355 0l11.49-11.49c2.929-2.93 2.929-7.678 0-10.607-2.93-2.928-7.678-2.928-10.607 0l-11.49 11.49c-3.722 3.881-10.419 3.88-14.142 0-3.879-3.722-3.88-10.419.001-14.141l48.125-48.126c2.929-2.93 2.929-7.678 0-10.607l-48.626-48.626c-3.879-3.722-3.88-10.419.001-14.141 3.898-3.9 10.242-3.9 14.141 0l53.93 53.929c7.741 7.423 7.741 20.861-.001 28.283z"/></g></g></svg>