<?xml version="1.0" encoding="iso-8859-1"?>
<!-- Generator: Adobe Illustrator 19.0.0, SVG Export Plug-In . SVG Version: 6.00 Build 0)  -->
<svg version="1.1" id="Capa_1" xmlns="http://www.w3.org/2000/svg" xmlns:xlink="http://www.w3.org/1999/xlink" x="0px" y="0px"
	 viewBox="0 0 512 512" style="enable-background:new 0 0 512 512;" xml:space="preserve">
<g>
	<circle style="fill:#4DBAF6;" cx="255.998" cy="34" r="24"/>
	<circle style="fill:#4DBAF6;" cx="255.998" cy="477.996" r="24"/>
</g>
<circle style="fill:#FF5D5D;" cx="477.996" cy="137.159" r="24"/>
<circle style="fill:#62CD4D;" cx="34" cy="137.159" r="24"/>
<circle style="fill:#FF5D5D;" cx="34" cy="374.837" r="24"/>
<circle style="fill:#62CD4D;" cx="477.996" cy="374.837" r="24"/>
<polygon style="fill:#FEA02C;" points="256.122,127.756 140.5,191.818 140.5,319.939 256.122,384 371.743,319.939 371.743,191.818 
	"/>
<polygon style="fill:#FFB954;" points="371.743,319.939 371.743,191.818 256.122,255.878 256.122,384 "/>
<path d="M195.71,340.588c-2.641,0-5.22,1.07-7.08,2.93c-1.86,1.87-2.92,4.44-2.92,7.07c0,2.64,1.06,5.21,2.92,7.07
	c1.87,1.87,4.439,2.93,7.08,2.93c2.63,0,5.2-1.06,7.069-2.93c1.86-1.86,2.931-4.431,2.931-7.07c0-2.63-1.07-5.2-2.931-7.07
	C200.92,341.659,198.34,340.588,195.71,340.588z"/>
<path d="M330.909,204.49c-2.631,0-5.21,1.069-7.07,2.93c-1.86,1.87-2.93,4.439-2.93,7.07c0,2.64,1.069,5.21,2.93,7.069
	c1.86,1.87,4.439,2.931,7.07,2.931c2.63,0,5.21-1.061,7.069-2.931c1.87-1.859,2.931-4.439,2.931-7.069c0-2.62-1.061-5.2-2.931-7.07
	C336.119,205.559,333.549,204.49,330.909,204.49z"/>
<path d="M478,340.839c-15.269,0-28.217,10.117-32.497,24h-15.029l-48.964-48.964V196.123l48.964-48.964h15.029
	c4.28,13.883,17.228,24,32.497,24c18.748,0,34-15.252,34-34s-15.252-34-34-34c-15.269,0-28.217,10.117-32.497,24h-19.172
	c-2.652,0-5.195,1.054-7.071,2.929l-49.506,49.507L266,122.109V66.498c13.882-4.28,24-17.228,24-32.497c0-18.748-15.252-34-34-34
	s-34,15.252-34,34c0,15.269,10.118,28.217,24,32.497v55.611l-103.754,57.486l-49.507-49.507c-1.876-1.875-4.419-2.929-7.071-2.929
	H66.496c-4.28-13.883-17.228-24-32.497-24c-18.748,0-34,15.252-34,34s15.252,34,34,34c15.269,0,28.217-10.117,32.497-24h15.029
	l48.964,48.964v119.753l-48.964,48.964H66.496c-4.28-13.883-17.228-24-32.497-24c-18.748,0-34,15.252-34,34
	c0,18.748,15.252,34,34,34c15.269,0,28.217-10.117,32.497-24h19.172c2.652,0,5.195-1.054,7.071-2.929l49.506-49.506l12.365,6.851
	c4.832,2.676,10.916,0.931,13.594-3.9c2.677-4.831,0.931-10.917-3.9-13.594l-13.814-7.654V208.972l95.511,52.919v105.134
	l-12.539-6.947c-4.832-2.676-10.918-0.931-13.594,3.9c-2.677,4.831-0.931,10.917,3.9,13.594L246,389.89v55.612
	c-13.882,4.28-24,17.228-24,32.497c0,18.748,15.252,34,34,34s34-15.252,34-34c0-15.269-10.118-28.217-24-32.497V389.89
	l103.754-57.486l49.506,49.507c1.876,1.875,4.419,2.929,7.071,2.929h19.172c4.28,13.883,17.228,24,32.497,24
	c18.748,0,34-15.252,34-34C511.999,356.092,496.748,340.839,478,340.839z M478,123.16c7.72,0,14,6.28,14,14s-6.28,14-14,14
	s-14-6.28-14-14S470.28,123.16,478,123.16z M34,151.16c-7.72,0-14-6.28-14-14s6.28-14,14-14s14,6.28,14,14S41.72,151.16,34,151.16z
	 M34,388.839c-7.72,0-14-6.28-14-14s6.28-14,14-14s14,6.28,14,14S41.72,388.839,34,388.839z M266,261.891l33.663-18.651
	c4.831-2.677,6.577-8.763,3.9-13.594c-2.677-4.83-8.76-6.576-13.594-3.9l-33.97,18.82L161.122,192l94.877-52.567l105.511,58.459
	v116.216l-95.511,52.918V261.891H266z M256,20.001c7.72,0,14,6.28,14,14s-6.28,14-14,14s-14-6.28-14-14S248.28,20.001,256,20.001z
	 M256,491.998c-7.72,0-14-6.28-14-14s6.28-14,14-14s14,6.28,14,14S263.72,491.998,256,491.998z M478,388.839c-7.72,0-14-6.28-14-14
	s6.28-14,14-14s14,6.28,14,14S485.72,388.839,478,388.839z"/>
<g>
</g>
<g>
</g>
<g>
</g>
<g>
</g>
<g>
</g>
<g>
</g>
<g>
</g>
<g>
</g>
<g>
</g>
<g>
</g>
<g>
</g>
<g>
</g>
<g>
</g>
<g>
</g>
<g>
</g>
</svg>
